<?xml version="1.0" encoding="UTF-8"?>
<svg version="1.1" xmlns="http://www.w3.org/2000/svg" width="100" height="100">
<path d="M0 0 C33 0 66 0 100 0 C100 33 100 66 100 100 C67 100 34 100 0 100 C0 67 0 34 0 0 Z " fill="#FDFDFD" transform="translate(0,0)"/>
<path d="M0 0 C4.91666667 1.91666667 4.91666667 1.91666667 7 4 C7.33 2.68 7.66 1.36 8 0 C12.29 0 16.58 0 21 0 C21 14.19 21 28.38 21 43 C16.71 43 12.42 43 8 43 C7.67 41.68 7.34 40.36 7 39 C6.236875 39.639375 5.47375 40.27875 4.6875 40.9375 C0.6795945 44.01333445 -2.68873881 44.40348751 -7.5859375 44.34765625 C-12.9450414 43.57587591 -16.74343363 40.32270145 -20.375 36.5 C-24.9584356 29.44856061 -24.67365279 22.11837972 -24 14 C-22.62107552 8.30975468 -19.19763267 4.35399099 -14.4140625 1.06640625 C-9.72902115 -1.00319939 -4.9875969 -0.72750361 0 0 Z " fill="#3B3B45" transform="translate(38,34)"/>
<path d="M0 0 C3.96 0 7.92 0 12 0 C12 13.86 12 27.72 12 42 C7.71 42 3.42 42 -1 42 C-1.33 40.68 -1.66 39.36 -2 38 C-2.66 38.66 -3.32 39.32 -4 40 C-6.625 40.125 -6.625 40.125 -9 40 C-8.01 38.35 -7.02 36.7 -6 35 C-7.32 34.34 -8.64 33.68 -10 33 C-9.34 33 -8.68 33 -8 33 C-7.67 32.01 -7.34 31.02 -7 30 C-5.66666667 29 -4.33333333 28 -3 27 C-1.64158588 22.92475764 -1.97793617 19.17534425 -2.0625 14.91015625 C-2.00807439 12.37596402 -1.60833362 10.42790291 -1 8 C-1.33 7.34 -1.66 6.68 -2 6 C-1.34 6 -0.68 6 0 6 C0 4.02 0 2.04 0 0 Z " fill="#383842" transform="translate(47,35)"/>
<path d="M0 0 C4.29 0 8.58 0 13 0 C13 14.19 13 28.38 13 43 C8.71 43 4.42 43 0 43 C0 28.81 0 14.62 0 0 Z " fill="#383842" transform="translate(66,34)"/>
<path d="M0 0 C2.75329021 1.79562405 4.52627461 3.05254922 6 6 C6.35032356 11.34243433 6.4561069 14.64786539 3 19 C-0.75047482 21.50031654 -2.55856266 21.53603554 -7 21 C-9.875 18.5625 -9.875 18.5625 -12 16 C-12.33 15.67 -12.66 15.34 -13 15 C-13.35536226 9.66956605 -13.44866826 6.34276744 -10 2 C-6.2626144 -0.4915904 -4.42668417 -0.45793285 0 0 Z " fill="#F7F7F8" transform="translate(40,45)"/>
<path d="M0 0 C2.4375 1.5625 2.4375 1.5625 4 4 C4.5625 7.5 4.5625 7.5 4 11 C1.41830549 13.96135546 -0.18881135 14.86756104 -4.0625 15.5 C-7 15 -7 15 -9.375 13.4375 C-11.62340519 10.06489221 -11.56783945 7.97487617 -11 4 C-8.11188513 -0.5054592 -5.11821063 -0.73117295 0 0 Z " fill="#3391B2" transform="translate(76,15)"/>
<path d="M0 0 C3.875 1.75 3.875 1.75 5 4 C5.375 7.375 5.375 7.375 5 11 C2.28086874 14.1190035 0.82626618 14.93764029 -3.3125 15.25 C-4.199375 15.1675 -5.08625 15.085 -6 15 C-6 14.67 -6 14.34 -6 14 C-3.69 13.34 -1.38 12.68 1 12 C1.02712066 10.56260487 1.04645067 9.12506137 1.0625 7.6875 C1.07410156 6.88699219 1.08570312 6.08648437 1.09765625 5.26171875 C1.09657855 2.83138666 1.09657855 2.83138666 0 0 Z " fill="#5C92B7" transform="translate(75,15)"/>
<path d="M0 0 C0.66 0.33 1.32 0.66 2 1 C2.08096803 2.45742463 2.13917774 3.91612807 2.1875 5.375 C2.22230469 6.18710937 2.25710937 6.99921875 2.29296875 7.8359375 C2.19628906 8.55007812 2.09960938 9.26421875 2 10 C-1.45029042 12.30019361 -2.94554358 12.43132515 -7 12 C-7.66 11.01 -8.32 10.02 -9 9 C-6.03 9.495 -6.03 9.495 -3 10 C-2.01 6.7 -1.02 3.4 0 0 Z " fill="#3791B8" transform="translate(75,17)"/>
<path d="M0 0 C0.33 0.99 0.66 1.98 1 3 C1.99 3 2.98 3 4 3 C2.70700306 5.88437779 1.34058637 7.87219421 -1 10 C-1.66 9.67 -2.32 9.34 -3 9 C-2.25 2.25 -2.25 2.25 0 0 Z " fill="#1D93B2" transform="translate(69,17)"/>
<path d="M0 0 C0.53625 0.2475 1.0725 0.495 1.625 0.75 C1.00625 0.8325 0.3875 0.915 -0.25 1 C-2.55846804 1.53810733 -2.55846804 1.53810733 -3.375 3.75 C-4.375 5.75 -4.375 5.75 -6.375 6.4375 C-7.035 6.540625 -7.695 6.64375 -8.375 6.75 C-9.365 7.245 -9.365 7.245 -10.375 7.75 C-8.77449323 3.26858103 -4.98031651 -0.52424384 0 0 Z " fill="#4E4E54" transform="translate(28.375,34.25)"/>
<path d="M0 0 C0.66 0.33 1.32 0.66 2 1 C2 3.97 2 6.94 2 10 C1.01 10.495 1.01 10.495 0 11 C-0.19491452 9.54263913 -0.38069358 8.08405407 -0.5625 6.625 C-0.66691406 5.81289063 -0.77132812 5.00078125 -0.87890625 4.1640625 C-1 2 -1 2 0 0 Z " fill="#4390C0" transform="translate(75,17)"/>
</svg>
